<mxfile host="app.diagrams.net" agent="Mozilla/5.0 (Windows NT 10.0; Win64; x64) AppleWebKit/537.36 (KHTML, like Gecko) Chrome/139.0.0.0 Safari/537.36" version="28.2.1">
  <diagram name="ページ1" id="AnrSfRSHIZwgEzWBYy-l">
    <mxGraphModel dx="2253" dy="777" grid="1" gridSize="10" guides="1" tooltips="1" connect="1" arrows="1" fold="1" page="1" pageScale="1" pageWidth="827" pageHeight="1169" math="0" shadow="0">
      <root>
        <mxCell id="0" />
        <mxCell id="1" parent="0" />
        <mxCell id="BANWUr-wKafnx84cCBVI-2" value="" style="shape=umlLifeline;perimeter=lifelinePerimeter;whiteSpace=wrap;html=1;container=1;dropTarget=0;collapsible=0;recursiveResize=0;outlineConnect=0;portConstraint=eastwest;newEdgeStyle={&quot;curved&quot;:0,&quot;rounded&quot;:0};participant=umlActor;" vertex="1" parent="1">
          <mxGeometry x="160" y="280" width="20" height="440" as="geometry" />
        </mxCell>
        <mxCell id="BANWUr-wKafnx84cCBVI-4" value="" style="html=1;points=[[0,0,0,0,5],[0,1,0,0,-5],[1,0,0,0,5],[1,1,0,0,-5]];perimeter=orthogonalPerimeter;outlineConnect=0;targetShapes=umlLifeline;portConstraint=eastwest;newEdgeStyle={&quot;curved&quot;:0,&quot;rounded&quot;:0};" vertex="1" parent="BANWUr-wKafnx84cCBVI-2">
          <mxGeometry x="5" y="80" width="10" height="120" as="geometry" />
        </mxCell>
        <mxCell id="BANWUr-wKafnx84cCBVI-30" value="" style="html=1;points=[[0,0,0,0,5],[0,1,0,0,-5],[1,0,0,0,5],[1,1,0,0,-5]];perimeter=orthogonalPerimeter;outlineConnect=0;targetShapes=umlLifeline;portConstraint=eastwest;newEdgeStyle={&quot;curved&quot;:0,&quot;rounded&quot;:0};" vertex="1" parent="BANWUr-wKafnx84cCBVI-2">
          <mxGeometry x="5" y="240" width="10" height="140" as="geometry" />
        </mxCell>
        <mxCell id="BANWUr-wKafnx84cCBVI-5" value="" style="shape=umlLifeline;perimeter=lifelinePerimeter;whiteSpace=wrap;html=1;container=1;dropTarget=0;collapsible=0;recursiveResize=0;outlineConnect=0;portConstraint=eastwest;newEdgeStyle={&quot;curved&quot;:0,&quot;rounded&quot;:0};participant=umlBoundary;fillColor=#d5e8d4;strokeColor=#82b366;" vertex="1" parent="1">
          <mxGeometry x="320" y="280" width="50" height="440" as="geometry" />
        </mxCell>
        <mxCell id="BANWUr-wKafnx84cCBVI-16" value="" style="html=1;points=[[0,0,0,0,5],[0,1,0,0,-5],[1,0,0,0,5],[1,1,0,0,-5]];perimeter=orthogonalPerimeter;outlineConnect=0;targetShapes=umlLifeline;portConstraint=eastwest;newEdgeStyle={&quot;curved&quot;:0,&quot;rounded&quot;:0};" vertex="1" parent="BANWUr-wKafnx84cCBVI-5">
          <mxGeometry x="20" y="100" width="10" height="80" as="geometry" />
        </mxCell>
        <mxCell id="BANWUr-wKafnx84cCBVI-6" value="" style="shape=umlLifeline;perimeter=lifelinePerimeter;whiteSpace=wrap;html=1;container=1;dropTarget=0;collapsible=0;recursiveResize=0;outlineConnect=0;portConstraint=eastwest;newEdgeStyle={&quot;curved&quot;:0,&quot;rounded&quot;:0};participant=umlBoundary;fillColor=#d5e8d4;strokeColor=#82b366;" vertex="1" parent="1">
          <mxGeometry x="520" y="280" width="50" height="440" as="geometry" />
        </mxCell>
        <mxCell id="BANWUr-wKafnx84cCBVI-29" value="" style="html=1;points=[[0,0,0,0,5],[0,1,0,0,-5],[1,0,0,0,5],[1,1,0,0,-5]];perimeter=orthogonalPerimeter;outlineConnect=0;targetShapes=umlLifeline;portConstraint=eastwest;newEdgeStyle={&quot;curved&quot;:0,&quot;rounded&quot;:0};" vertex="1" parent="BANWUr-wKafnx84cCBVI-6">
          <mxGeometry x="20" y="120" width="10" height="40" as="geometry" />
        </mxCell>
        <mxCell id="BANWUr-wKafnx84cCBVI-31" value="" style="html=1;points=[[0,0,0,0,5],[0,1,0,0,-5],[1,0,0,0,5],[1,1,0,0,-5]];perimeter=orthogonalPerimeter;outlineConnect=0;targetShapes=umlLifeline;portConstraint=eastwest;newEdgeStyle={&quot;curved&quot;:0,&quot;rounded&quot;:0};" vertex="1" parent="BANWUr-wKafnx84cCBVI-6">
          <mxGeometry x="20" y="270" width="10" height="90" as="geometry" />
        </mxCell>
        <mxCell id="BANWUr-wKafnx84cCBVI-7" value="" style="shape=umlLifeline;perimeter=lifelinePerimeter;whiteSpace=wrap;html=1;container=1;dropTarget=0;collapsible=0;recursiveResize=0;outlineConnect=0;portConstraint=eastwest;newEdgeStyle={&quot;curved&quot;:0,&quot;rounded&quot;:0};participant=umlControl;fillColor=#f8cecc;strokeColor=#b85450;" vertex="1" parent="1">
          <mxGeometry x="730" y="280" width="40" height="440" as="geometry" />
        </mxCell>
        <mxCell id="BANWUr-wKafnx84cCBVI-35" value="" style="html=1;points=[[0,0,0,0,5],[0,1,0,0,-5],[1,0,0,0,5],[1,1,0,0,-5]];perimeter=orthogonalPerimeter;outlineConnect=0;targetShapes=umlLifeline;portConstraint=eastwest;newEdgeStyle={&quot;curved&quot;:0,&quot;rounded&quot;:0};" vertex="1" parent="BANWUr-wKafnx84cCBVI-7">
          <mxGeometry x="15" y="296" width="10" height="38" as="geometry" />
        </mxCell>
        <mxCell id="BANWUr-wKafnx84cCBVI-10" value="" style="shape=umlLifeline;perimeter=lifelinePerimeter;whiteSpace=wrap;html=1;container=1;dropTarget=0;collapsible=0;recursiveResize=0;outlineConnect=0;portConstraint=eastwest;newEdgeStyle={&quot;curved&quot;:0,&quot;rounded&quot;:0};participant=umlEntity;fillColor=#dae8fc;strokeColor=#6c8ebf;" vertex="1" parent="1">
          <mxGeometry x="920" y="280" width="40" height="440" as="geometry" />
        </mxCell>
        <mxCell id="BANWUr-wKafnx84cCBVI-36" value="" style="html=1;points=[[0,0,0,0,5],[0,1,0,0,-5],[1,0,0,0,5],[1,1,0,0,-5]];perimeter=orthogonalPerimeter;outlineConnect=0;targetShapes=umlLifeline;portConstraint=eastwest;newEdgeStyle={&quot;curved&quot;:0,&quot;rounded&quot;:0};" vertex="1" parent="BANWUr-wKafnx84cCBVI-10">
          <mxGeometry x="15" y="320" width="10" height="45" as="geometry" />
        </mxCell>
        <mxCell id="BANWUr-wKafnx84cCBVI-11" value="" style="html=1;points=[[0,0,0,0,5],[0,1,0,0,-5],[1,0,0,0,5],[1,1,0,0,-5]];perimeter=orthogonalPerimeter;outlineConnect=0;targetShapes=umlLifeline;portConstraint=eastwest;newEdgeStyle={&quot;curved&quot;:0,&quot;rounded&quot;:0};" vertex="1" parent="1">
          <mxGeometry x="160" y="800" width="10" height="80" as="geometry" />
        </mxCell>
        <mxCell id="BANWUr-wKafnx84cCBVI-12" value="&lt;font style=&quot;font-size: 16px;&quot;&gt;活性区間&lt;/font&gt;&lt;div&gt;&lt;font style=&quot;font-size: 16px;&quot;&gt;A&lt;/font&gt;&lt;span style=&quot;font-size: 16px; background-color: transparent; color: light-dark(rgb(0, 0, 0), rgb(255, 255, 255));&quot;&gt;ctivation Bar&lt;/span&gt;&lt;/div&gt;" style="text;html=1;align=center;verticalAlign=middle;resizable=0;points=[];autosize=1;strokeColor=none;fillColor=none;" vertex="1" parent="1">
          <mxGeometry x="170" y="815" width="120" height="50" as="geometry" />
        </mxCell>
        <mxCell id="BANWUr-wKafnx84cCBVI-14" value="" style="endArrow=none;html=1;rounded=0;dashed=1;" edge="1" parent="1">
          <mxGeometry width="50" height="50" relative="1" as="geometry">
            <mxPoint x="345" y="890" as="sourcePoint" />
            <mxPoint x="344.5" y="770" as="targetPoint" />
          </mxGeometry>
        </mxCell>
        <mxCell id="BANWUr-wKafnx84cCBVI-15" value="&lt;font style=&quot;font-size: 16px;&quot;&gt;生存線&lt;/font&gt;&lt;div&gt;&lt;font style=&quot;font-size: 16px;&quot;&gt;Life Line&lt;/font&gt;&lt;/div&gt;" style="text;html=1;align=center;verticalAlign=middle;resizable=0;points=[];autosize=1;strokeColor=none;fillColor=none;" vertex="1" parent="1">
          <mxGeometry x="359" y="815" width="80" height="50" as="geometry" />
        </mxCell>
        <mxCell id="BANWUr-wKafnx84cCBVI-17" value="" style="endArrow=classic;html=1;rounded=0;entryX=0;entryY=0;entryDx=0;entryDy=5;entryPerimeter=0;strokeWidth=2;" edge="1" parent="1" source="BANWUr-wKafnx84cCBVI-4" target="BANWUr-wKafnx84cCBVI-16">
          <mxGeometry width="50" height="50" relative="1" as="geometry">
            <mxPoint x="300" y="600" as="sourcePoint" />
            <mxPoint x="440" y="610" as="targetPoint" />
          </mxGeometry>
        </mxCell>
        <mxCell id="BANWUr-wKafnx84cCBVI-18" value="" style="endArrow=classic;html=1;rounded=0;strokeWidth=6;" edge="1" parent="1">
          <mxGeometry width="50" height="50" relative="1" as="geometry">
            <mxPoint x="40" y="360" as="sourcePoint" />
            <mxPoint x="40" y="640" as="targetPoint" />
          </mxGeometry>
        </mxCell>
        <mxCell id="BANWUr-wKafnx84cCBVI-19" value="&lt;font style=&quot;font-size: 15px;&quot;&gt;&lt;b&gt;時間の流れ&lt;/b&gt;&lt;/font&gt;" style="text;html=1;align=center;verticalAlign=middle;resizable=0;points=[];autosize=1;strokeColor=none;fillColor=none;" vertex="1" parent="1">
          <mxGeometry x="-10" y="640" width="100" height="30" as="geometry" />
        </mxCell>
        <mxCell id="BANWUr-wKafnx84cCBVI-20" value="&lt;font style=&quot;font-size: 13px;&quot;&gt;学生登録を選択()&lt;/font&gt;" style="text;html=1;align=center;verticalAlign=middle;resizable=0;points=[];autosize=1;strokeColor=none;fillColor=none;strokeWidth=5;" vertex="1" parent="1">
          <mxGeometry x="200" y="360" width="120" height="30" as="geometry" />
        </mxCell>
        <mxCell id="BANWUr-wKafnx84cCBVI-21" value="&lt;font style=&quot;font-size: 13px;&quot;&gt;メニュー画面&lt;/font&gt;" style="text;html=1;align=center;verticalAlign=middle;resizable=0;points=[];autosize=1;strokeColor=none;fillColor=none;" vertex="1" parent="1">
          <mxGeometry x="300" y="320" width="100" height="30" as="geometry" />
        </mxCell>
        <mxCell id="BANWUr-wKafnx84cCBVI-22" value="&lt;font style=&quot;font-size: 13px;&quot;&gt;学生登録画面&lt;/font&gt;" style="text;html=1;align=center;verticalAlign=middle;resizable=0;points=[];autosize=1;strokeColor=none;fillColor=none;" vertex="1" parent="1">
          <mxGeometry x="500" y="320" width="100" height="30" as="geometry" />
        </mxCell>
        <mxCell id="BANWUr-wKafnx84cCBVI-23" value="&lt;font style=&quot;font-size: 13px;&quot;&gt;学生情報登録&lt;/font&gt;" style="text;html=1;align=center;verticalAlign=middle;resizable=0;points=[];autosize=1;strokeColor=none;fillColor=none;" vertex="1" parent="1">
          <mxGeometry x="700" y="320" width="100" height="30" as="geometry" />
        </mxCell>
        <mxCell id="BANWUr-wKafnx84cCBVI-24" value="&lt;font style=&quot;font-size: 13px;&quot;&gt;学生オブジェクト&lt;/font&gt;" style="text;html=1;align=center;verticalAlign=middle;resizable=0;points=[];autosize=1;strokeColor=none;fillColor=none;" vertex="1" parent="1">
          <mxGeometry x="875" y="320" width="130" height="30" as="geometry" />
        </mxCell>
        <mxCell id="BANWUr-wKafnx84cCBVI-25" value="" style="endArrow=classic;html=1;rounded=0;" edge="1" parent="1">
          <mxGeometry width="50" height="50" relative="1" as="geometry">
            <mxPoint x="510" y="865" as="sourcePoint" />
            <mxPoint x="630" y="865" as="targetPoint" />
          </mxGeometry>
        </mxCell>
        <mxCell id="BANWUr-wKafnx84cCBVI-26" value="&lt;font style=&quot;font-size: 15px;&quot;&gt;操作（）&lt;/font&gt;&lt;div&gt;&lt;font style=&quot;font-size: 15px;&quot;&gt;Method&lt;/font&gt;&lt;/div&gt;" style="text;html=1;align=center;verticalAlign=middle;resizable=0;points=[];autosize=1;strokeColor=none;fillColor=none;" vertex="1" parent="1">
          <mxGeometry x="510" y="815" width="80" height="50" as="geometry" />
        </mxCell>
        <mxCell id="BANWUr-wKafnx84cCBVI-27" value="&lt;span style=&quot;font-size: 15px;&quot;&gt;メッセージ&lt;/span&gt;&lt;div&gt;&lt;span style=&quot;font-size: 15px;&quot;&gt;message&lt;/span&gt;&lt;/div&gt;" style="text;html=1;align=center;verticalAlign=middle;resizable=0;points=[];autosize=1;strokeColor=none;fillColor=none;" vertex="1" parent="1">
          <mxGeometry x="680" y="820" width="100" height="50" as="geometry" />
        </mxCell>
        <mxCell id="BANWUr-wKafnx84cCBVI-28" value="" style="endArrow=classic;html=1;rounded=0;strokeWidth=2;exitX=1;exitY=0.25;exitDx=0;exitDy=0;exitPerimeter=0;" edge="1" parent="1" source="BANWUr-wKafnx84cCBVI-16" target="BANWUr-wKafnx84cCBVI-29">
          <mxGeometry width="50" height="50" relative="1" as="geometry">
            <mxPoint x="360" y="410" as="sourcePoint" />
            <mxPoint x="450" y="430" as="targetPoint" />
          </mxGeometry>
        </mxCell>
        <mxCell id="BANWUr-wKafnx84cCBVI-32" value="&lt;font style=&quot;font-size: 13px;&quot;&gt;表示（）&lt;/font&gt;" style="text;html=1;align=center;verticalAlign=middle;resizable=0;points=[];autosize=1;strokeColor=none;fillColor=none;strokeWidth=5;" vertex="1" parent="1">
          <mxGeometry x="410" y="370" width="80" height="30" as="geometry" />
        </mxCell>
        <mxCell id="BANWUr-wKafnx84cCBVI-34" value="" style="endArrow=classic;html=1;rounded=0;strokeWidth=2;entryX=-0.1;entryY=-0.011;entryDx=0;entryDy=0;entryPerimeter=0;" edge="1" parent="1" source="BANWUr-wKafnx84cCBVI-30" target="BANWUr-wKafnx84cCBVI-31">
          <mxGeometry width="50" height="50" relative="1" as="geometry">
            <mxPoint x="260" y="610" as="sourcePoint" />
            <mxPoint x="440" y="630" as="targetPoint" />
          </mxGeometry>
        </mxCell>
        <mxCell id="BANWUr-wKafnx84cCBVI-37" value="" style="endArrow=classic;html=1;rounded=0;strokeWidth=2;entryX=0;entryY=0;entryDx=0;entryDy=5;entryPerimeter=0;" edge="1" parent="1" source="BANWUr-wKafnx84cCBVI-31" target="BANWUr-wKafnx84cCBVI-35">
          <mxGeometry width="50" height="50" relative="1" as="geometry">
            <mxPoint x="319" y="670" as="sourcePoint" />
            <mxPoint x="640" y="650" as="targetPoint" />
          </mxGeometry>
        </mxCell>
        <mxCell id="BANWUr-wKafnx84cCBVI-38" value="" style="endArrow=classic;html=1;rounded=0;strokeWidth=2;entryX=0;entryY=0;entryDx=0;entryDy=5;entryPerimeter=0;" edge="1" parent="1" source="BANWUr-wKafnx84cCBVI-35" target="BANWUr-wKafnx84cCBVI-36">
          <mxGeometry width="50" height="50" relative="1" as="geometry">
            <mxPoint x="820" y="660" as="sourcePoint" />
            <mxPoint x="1021" y="640" as="targetPoint" />
          </mxGeometry>
        </mxCell>
      </root>
    </mxGraphModel>
  </diagram>
</mxfile>
